<?xml version="1.0" encoding="UTF-8"?>
<svg xmlns="http://www.w3.org/2000/svg" xmlns:xlink="http://www.w3.org/1999/xlink" width="1220" height="220" viewBox="0 0 1220 220">
<rect x="-122" y="-22" width="1464" height="264" fill="rgb(100%, 100%, 100%)" fill-opacity="1"/>
<path fill-rule="nonzero" fill="rgb(100%, 9.96%, 0%)" fill-opacity="1" stroke-width="0.5" stroke-linecap="butt" stroke-linejoin="miter" stroke="rgb(0%, 0%, 0%)" stroke-opacity="1" stroke-miterlimit="10" d="M 11 110 L 61 10 L 111 110 Z M 11 110 "/>
<path fill-rule="nonzero" fill="rgb(100%, 19.92%, 0%)" fill-opacity="1" stroke-width="0.5" stroke-linecap="butt" stroke-linejoin="miter" stroke="rgb(0%, 0%, 0%)" stroke-opacity="1" stroke-miterlimit="10" d="M 21 120 L 71 20 L 121 120 Z M 21 120 "/>
<path fill-rule="nonzero" fill="rgb(100%, 29.88%, 0%)" fill-opacity="1" stroke-width="0.5" stroke-linecap="butt" stroke-linejoin="miter" stroke="rgb(0%, 0%, 0%)" stroke-opacity="1" stroke-miterlimit="10" d="M 31 130 L 81 30 L 131 130 Z M 31 130 "/>
<path fill-rule="nonzero" fill="rgb(100%, 39.84%, 0%)" fill-opacity="1" stroke-width="0.5" stroke-linecap="butt" stroke-linejoin="miter" stroke="rgb(0%, 0%, 0%)" stroke-opacity="1" stroke-miterlimit="10" d="M 41 140 L 91 40 L 141 140 Z M 41 140 "/>
<path fill-rule="nonzero" fill="rgb(100%, 49.8%, 0%)" fill-opacity="1" stroke-width="0.5" stroke-linecap="butt" stroke-linejoin="miter" stroke="rgb(0%, 0%, 0%)" stroke-opacity="1" stroke-miterlimit="10" d="M 51 150 L 101 50 L 151 150 Z M 51 150 "/>
<path fill-rule="nonzero" fill="rgb(100%, 59.76%, 0%)" fill-opacity="1" stroke-width="0.5" stroke-linecap="butt" stroke-linejoin="miter" stroke="rgb(0%, 0%, 0%)" stroke-opacity="1" stroke-miterlimit="10" d="M 61 160 L 111 60 L 161 160 Z M 61 160 "/>
<path fill-rule="nonzero" fill="rgb(100%, 69.72%, 0%)" fill-opacity="1" stroke-width="0.5" stroke-linecap="butt" stroke-linejoin="miter" stroke="rgb(0%, 0%, 0%)" stroke-opacity="1" stroke-miterlimit="10" d="M 71 170 L 121 70 L 171 170 Z M 71 170 "/>
<path fill-rule="nonzero" fill="rgb(100%, 79.68%, 0%)" fill-opacity="1" stroke-width="0.5" stroke-linecap="butt" stroke-linejoin="miter" stroke="rgb(0%, 0%, 0%)" stroke-opacity="1" stroke-miterlimit="10" d="M 81 180 L 131 80 L 181 180 Z M 81 180 "/>
<path fill-rule="nonzero" fill="rgb(100%, 89.64%, 0%)" fill-opacity="1" stroke-width="0.5" stroke-linecap="butt" stroke-linejoin="miter" stroke="rgb(0%, 0%, 0%)" stroke-opacity="1" stroke-miterlimit="10" d="M 91 190 L 141 90 L 191 190 Z M 91 190 "/>
<path fill-rule="nonzero" fill="rgb(100%, 99.6%, 0%)" fill-opacity="1" stroke-width="0.5" stroke-linecap="butt" stroke-linejoin="miter" stroke="rgb(0%, 0%, 0%)" stroke-opacity="1" stroke-miterlimit="10" d="M 101 200 L 151 100 L 201 200 Z M 101 200 "/>
<path fill-rule="nonzero" fill="rgb(90.08%, 99.64%, 0%)" fill-opacity="1" stroke-width="0.5" stroke-linecap="butt" stroke-linejoin="miter" stroke="rgb(0%, 0%, 0%)" stroke-opacity="1" stroke-miterlimit="10" d="M 211 110 L 261 10 L 311 110 Z M 211 110 "/>
<path fill-rule="nonzero" fill="rgb(80.16%, 99.68%, 0%)" fill-opacity="1" stroke-width="0.5" stroke-linecap="butt" stroke-linejoin="miter" stroke="rgb(0%, 0%, 0%)" stroke-opacity="1" stroke-miterlimit="10" d="M 221 120 L 271 20 L 321 120 Z M 221 120 "/>
<path fill-rule="nonzero" fill="rgb(70.24%, 99.72%, 0%)" fill-opacity="1" stroke-width="0.5" stroke-linecap="butt" stroke-linejoin="miter" stroke="rgb(0%, 0%, 0%)" stroke-opacity="1" stroke-miterlimit="10" d="M 231 130 L 281 30 L 331 130 Z M 231 130 "/>
<path fill-rule="nonzero" fill="rgb(60.32%, 99.76%, 0%)" fill-opacity="1" stroke-width="0.5" stroke-linecap="butt" stroke-linejoin="miter" stroke="rgb(0%, 0%, 0%)" stroke-opacity="1" stroke-miterlimit="10" d="M 241 140 L 291 40 L 341 140 Z M 241 140 "/>
<path fill-rule="nonzero" fill="rgb(50.4%, 99.8%, 0%)" fill-opacity="1" stroke-width="0.5" stroke-linecap="butt" stroke-linejoin="miter" stroke="rgb(0%, 0%, 0%)" stroke-opacity="1" stroke-miterlimit="10" d="M 251 150 L 301 50 L 351 150 Z M 251 150 "/>
<path fill-rule="nonzero" fill="rgb(40.48%, 99.84%, 0%)" fill-opacity="1" stroke-width="0.5" stroke-linecap="butt" stroke-linejoin="miter" stroke="rgb(0%, 0%, 0%)" stroke-opacity="1" stroke-miterlimit="10" d="M 261 160 L 311 60 L 361 160 Z M 261 160 "/>
<path fill-rule="nonzero" fill="rgb(30.56%, 99.88%, 0%)" fill-opacity="1" stroke-width="0.5" stroke-linecap="butt" stroke-linejoin="miter" stroke="rgb(0%, 0%, 0%)" stroke-opacity="1" stroke-miterlimit="10" d="M 271 170 L 321 70 L 371 170 Z M 271 170 "/>
<path fill-rule="nonzero" fill="rgb(20.64%, 99.92%, 0%)" fill-opacity="1" stroke-width="0.5" stroke-linecap="butt" stroke-linejoin="miter" stroke="rgb(0%, 0%, 0%)" stroke-opacity="1" stroke-miterlimit="10" d="M 281 180 L 331 80 L 381 180 Z M 281 180 "/>
<path fill-rule="nonzero" fill="rgb(10.72%, 99.96%, 0%)" fill-opacity="1" stroke-width="0.5" stroke-linecap="butt" stroke-linejoin="miter" stroke="rgb(0%, 0%, 0%)" stroke-opacity="1" stroke-miterlimit="10" d="M 291 190 L 341 90 L 391 190 Z M 291 190 "/>
<path fill-rule="nonzero" fill="rgb(0.8%, 100%, 0%)" fill-opacity="1" stroke-width="0.5" stroke-linecap="butt" stroke-linejoin="miter" stroke="rgb(0%, 0%, 0%)" stroke-opacity="1" stroke-miterlimit="10" d="M 301 200 L 351 100 L 401 200 Z M 301 200 "/>
<path fill-rule="nonzero" fill="rgb(0.72%, 100%, 9.88%)" fill-opacity="1" stroke-width="0.5" stroke-linecap="butt" stroke-linejoin="miter" stroke="rgb(0%, 0%, 0%)" stroke-opacity="1" stroke-miterlimit="10" d="M 411 110 L 461 10 L 511 110 Z M 411 110 "/>
<path fill-rule="nonzero" fill="rgb(0.64%, 100%, 19.76%)" fill-opacity="1" stroke-width="0.5" stroke-linecap="butt" stroke-linejoin="miter" stroke="rgb(0%, 0%, 0%)" stroke-opacity="1" stroke-miterlimit="10" d="M 421 120 L 471 20 L 521 120 Z M 421 120 "/>
<path fill-rule="nonzero" fill="rgb(0.56%, 100%, 29.64%)" fill-opacity="1" stroke-width="0.5" stroke-linecap="butt" stroke-linejoin="miter" stroke="rgb(0%, 0%, 0%)" stroke-opacity="1" stroke-miterlimit="10" d="M 431 130 L 481 30 L 531 130 Z M 431 130 "/>
<path fill-rule="nonzero" fill="rgb(0.48%, 100%, 39.52%)" fill-opacity="1" stroke-width="0.5" stroke-linecap="butt" stroke-linejoin="miter" stroke="rgb(0%, 0%, 0%)" stroke-opacity="1" stroke-miterlimit="10" d="M 441 140 L 491 40 L 541 140 Z M 441 140 "/>
<path fill-rule="nonzero" fill="rgb(0.4%, 100%, 49.4%)" fill-opacity="1" stroke-width="0.5" stroke-linecap="butt" stroke-linejoin="miter" stroke="rgb(0%, 0%, 0%)" stroke-opacity="1" stroke-miterlimit="10" d="M 451 150 L 501 50 L 551 150 Z M 451 150 "/>
<path fill-rule="nonzero" fill="rgb(0.32%, 100%, 59.28%)" fill-opacity="1" stroke-width="0.5" stroke-linecap="butt" stroke-linejoin="miter" stroke="rgb(0%, 0%, 0%)" stroke-opacity="1" stroke-miterlimit="10" d="M 461 160 L 511 60 L 561 160 Z M 461 160 "/>
<path fill-rule="nonzero" fill="rgb(0.24%, 100%, 69.16%)" fill-opacity="1" stroke-width="0.5" stroke-linecap="butt" stroke-linejoin="miter" stroke="rgb(0%, 0%, 0%)" stroke-opacity="1" stroke-miterlimit="10" d="M 471 170 L 521 70 L 571 170 Z M 471 170 "/>
<path fill-rule="nonzero" fill="rgb(0.16%, 100%, 79.04%)" fill-opacity="1" stroke-width="0.5" stroke-linecap="butt" stroke-linejoin="miter" stroke="rgb(0%, 0%, 0%)" stroke-opacity="1" stroke-miterlimit="10" d="M 481 180 L 531 80 L 581 180 Z M 481 180 "/>
<path fill-rule="nonzero" fill="rgb(0.08%, 100%, 88.92%)" fill-opacity="1" stroke-width="0.5" stroke-linecap="butt" stroke-linejoin="miter" stroke="rgb(0%, 0%, 0%)" stroke-opacity="1" stroke-miterlimit="10" d="M 491 190 L 541 90 L 591 190 Z M 491 190 "/>
<path fill-rule="nonzero" fill="rgb(0%, 100%, 98.8%)" fill-opacity="1" stroke-width="0.5" stroke-linecap="butt" stroke-linejoin="miter" stroke="rgb(0%, 0%, 0%)" stroke-opacity="1" stroke-miterlimit="10" d="M 501 200 L 551 100 L 601 200 Z M 501 200 "/>
<path fill-rule="nonzero" fill="rgb(0%, 90.16%, 98.92%)" fill-opacity="1" stroke-width="0.5" stroke-linecap="butt" stroke-linejoin="miter" stroke="rgb(0%, 0%, 0%)" stroke-opacity="1" stroke-miterlimit="10" d="M 611 110 L 661 10 L 711 110 Z M 611 110 "/>
<path fill-rule="nonzero" fill="rgb(0%, 80.32%, 99.04%)" fill-opacity="1" stroke-width="0.5" stroke-linecap="butt" stroke-linejoin="miter" stroke="rgb(0%, 0%, 0%)" stroke-opacity="1" stroke-miterlimit="10" d="M 621 120 L 671 20 L 721 120 Z M 621 120 "/>
<path fill-rule="nonzero" fill="rgb(0%, 70.48%, 99.16%)" fill-opacity="1" stroke-width="0.5" stroke-linecap="butt" stroke-linejoin="miter" stroke="rgb(0%, 0%, 0%)" stroke-opacity="1" stroke-miterlimit="10" d="M 631 130 L 681 30 L 731 130 Z M 631 130 "/>
<path fill-rule="nonzero" fill="rgb(0%, 60.64%, 99.28%)" fill-opacity="1" stroke-width="0.5" stroke-linecap="butt" stroke-linejoin="miter" stroke="rgb(0%, 0%, 0%)" stroke-opacity="1" stroke-miterlimit="10" d="M 641 140 L 691 40 L 741 140 Z M 641 140 "/>
<path fill-rule="nonzero" fill="rgb(0%, 50.8%, 99.4%)" fill-opacity="1" stroke-width="0.5" stroke-linecap="butt" stroke-linejoin="miter" stroke="rgb(0%, 0%, 0%)" stroke-opacity="1" stroke-miterlimit="10" d="M 651 150 L 701 50 L 751 150 Z M 651 150 "/>
<path fill-rule="nonzero" fill="rgb(0%, 40.96%, 99.52%)" fill-opacity="1" stroke-width="0.5" stroke-linecap="butt" stroke-linejoin="miter" stroke="rgb(0%, 0%, 0%)" stroke-opacity="1" stroke-miterlimit="10" d="M 661 160 L 711 60 L 761 160 Z M 661 160 "/>
<path fill-rule="nonzero" fill="rgb(0%, 31.12%, 99.64%)" fill-opacity="1" stroke-width="0.5" stroke-linecap="butt" stroke-linejoin="miter" stroke="rgb(0%, 0%, 0%)" stroke-opacity="1" stroke-miterlimit="10" d="M 671 170 L 721 70 L 771 170 Z M 671 170 "/>
<path fill-rule="nonzero" fill="rgb(0%, 21.28%, 99.76%)" fill-opacity="1" stroke-width="0.5" stroke-linecap="butt" stroke-linejoin="miter" stroke="rgb(0%, 0%, 0%)" stroke-opacity="1" stroke-miterlimit="10" d="M 681 180 L 731 80 L 781 180 Z M 681 180 "/>
<path fill-rule="nonzero" fill="rgb(0%, 11.44%, 99.88%)" fill-opacity="1" stroke-width="0.5" stroke-linecap="butt" stroke-linejoin="miter" stroke="rgb(0%, 0%, 0%)" stroke-opacity="1" stroke-miterlimit="10" d="M 691 190 L 741 90 L 791 190 Z M 691 190 "/>
<path fill-rule="nonzero" fill="rgb(0%, 1.6%, 100%)" fill-opacity="1" stroke-width="0.5" stroke-linecap="butt" stroke-linejoin="miter" stroke="rgb(0%, 0%, 0%)" stroke-opacity="1" stroke-miterlimit="10" d="M 701 200 L 751 100 L 801 200 Z M 701 200 "/>
<path fill-rule="nonzero" fill="rgb(9.8%, 1.44%, 100%)" fill-opacity="1" stroke-width="0.5" stroke-linecap="butt" stroke-linejoin="miter" stroke="rgb(0%, 0%, 0%)" stroke-opacity="1" stroke-miterlimit="10" d="M 811 110 L 861 10 L 911 110 Z M 811 110 "/>
<path fill-rule="nonzero" fill="rgb(19.6%, 1.28%, 100%)" fill-opacity="1" stroke-width="0.5" stroke-linecap="butt" stroke-linejoin="miter" stroke="rgb(0%, 0%, 0%)" stroke-opacity="1" stroke-miterlimit="10" d="M 821 120 L 871 20 L 921 120 Z M 821 120 "/>
<path fill-rule="nonzero" fill="rgb(29.4%, 1.12%, 100%)" fill-opacity="1" stroke-width="0.5" stroke-linecap="butt" stroke-linejoin="miter" stroke="rgb(0%, 0%, 0%)" stroke-opacity="1" stroke-miterlimit="10" d="M 831 130 L 881 30 L 931 130 Z M 831 130 "/>
<path fill-rule="nonzero" fill="rgb(39.2%, 0.96%, 100%)" fill-opacity="1" stroke-width="0.5" stroke-linecap="butt" stroke-linejoin="miter" stroke="rgb(0%, 0%, 0%)" stroke-opacity="1" stroke-miterlimit="10" d="M 841 140 L 891 40 L 941 140 Z M 841 140 "/>
<path fill-rule="nonzero" fill="rgb(49%, 0.8%, 100%)" fill-opacity="1" stroke-width="0.5" stroke-linecap="butt" stroke-linejoin="miter" stroke="rgb(0%, 0%, 0%)" stroke-opacity="1" stroke-miterlimit="10" d="M 851 150 L 901 50 L 951 150 Z M 851 150 "/>
<path fill-rule="nonzero" fill="rgb(58.8%, 0.64%, 100%)" fill-opacity="1" stroke-width="0.5" stroke-linecap="butt" stroke-linejoin="miter" stroke="rgb(0%, 0%, 0%)" stroke-opacity="1" stroke-miterlimit="10" d="M 861 160 L 911 60 L 961 160 Z M 861 160 "/>
<path fill-rule="nonzero" fill="rgb(68.6%, 0.48%, 100%)" fill-opacity="1" stroke-width="0.5" stroke-linecap="butt" stroke-linejoin="miter" stroke="rgb(0%, 0%, 0%)" stroke-opacity="1" stroke-miterlimit="10" d="M 871 170 L 921 70 L 971 170 Z M 871 170 "/>
<path fill-rule="nonzero" fill="rgb(78.4%, 0.32%, 100%)" fill-opacity="1" stroke-width="0.5" stroke-linecap="butt" stroke-linejoin="miter" stroke="rgb(0%, 0%, 0%)" stroke-opacity="1" stroke-miterlimit="10" d="M 881 180 L 931 80 L 981 180 Z M 881 180 "/>
<path fill-rule="nonzero" fill="rgb(88.2%, 0.16%, 100%)" fill-opacity="1" stroke-width="0.5" stroke-linecap="butt" stroke-linejoin="miter" stroke="rgb(0%, 0%, 0%)" stroke-opacity="1" stroke-miterlimit="10" d="M 891 190 L 941 90 L 991 190 Z M 891 190 "/>
<path fill-rule="nonzero" fill="rgb(98%, 0%, 100%)" fill-opacity="1" stroke-width="0.5" stroke-linecap="butt" stroke-linejoin="miter" stroke="rgb(0%, 0%, 0%)" stroke-opacity="1" stroke-miterlimit="10" d="M 901 200 L 951 100 L 1001 200 Z M 901 200 "/>
<path fill-rule="nonzero" fill="rgb(98.2%, 0%, 90.24%)" fill-opacity="1" stroke-width="0.5" stroke-linecap="butt" stroke-linejoin="miter" stroke="rgb(0%, 0%, 0%)" stroke-opacity="1" stroke-miterlimit="10" d="M 1011 110 L 1061 10 L 1111 110 Z M 1011 110 "/>
<path fill-rule="nonzero" fill="rgb(98.4%, 0%, 80.48%)" fill-opacity="1" stroke-width="0.5" stroke-linecap="butt" stroke-linejoin="miter" stroke="rgb(0%, 0%, 0%)" stroke-opacity="1" stroke-miterlimit="10" d="M 1021 120 L 1071 20 L 1121 120 Z M 1021 120 "/>
<path fill-rule="nonzero" fill="rgb(98.6%, 0%, 70.72%)" fill-opacity="1" stroke-width="0.5" stroke-linecap="butt" stroke-linejoin="miter" stroke="rgb(0%, 0%, 0%)" stroke-opacity="1" stroke-miterlimit="10" d="M 1031 130 L 1081 30 L 1131 130 Z M 1031 130 "/>
<path fill-rule="nonzero" fill="rgb(98.8%, 0%, 60.96%)" fill-opacity="1" stroke-width="0.5" stroke-linecap="butt" stroke-linejoin="miter" stroke="rgb(0%, 0%, 0%)" stroke-opacity="1" stroke-miterlimit="10" d="M 1041 140 L 1091 40 L 1141 140 Z M 1041 140 "/>
<path fill-rule="nonzero" fill="rgb(99%, 0%, 51.2%)" fill-opacity="1" stroke-width="0.5" stroke-linecap="butt" stroke-linejoin="miter" stroke="rgb(0%, 0%, 0%)" stroke-opacity="1" stroke-miterlimit="10" d="M 1051 150 L 1101 50 L 1151 150 Z M 1051 150 "/>
<path fill-rule="nonzero" fill="rgb(99.2%, 0%, 41.44%)" fill-opacity="1" stroke-width="0.5" stroke-linecap="butt" stroke-linejoin="miter" stroke="rgb(0%, 0%, 0%)" stroke-opacity="1" stroke-miterlimit="10" d="M 1061 160 L 1111 60 L 1161 160 Z M 1061 160 "/>
<path fill-rule="nonzero" fill="rgb(99.4%, 0%, 31.68%)" fill-opacity="1" stroke-width="0.5" stroke-linecap="butt" stroke-linejoin="miter" stroke="rgb(0%, 0%, 0%)" stroke-opacity="1" stroke-miterlimit="10" d="M 1071 170 L 1121 70 L 1171 170 Z M 1071 170 "/>
<path fill-rule="nonzero" fill="rgb(99.6%, 0%, 21.92%)" fill-opacity="1" stroke-width="0.5" stroke-linecap="butt" stroke-linejoin="miter" stroke="rgb(0%, 0%, 0%)" stroke-opacity="1" stroke-miterlimit="10" d="M 1081 180 L 1131 80 L 1181 180 Z M 1081 180 "/>
<path fill-rule="nonzero" fill="rgb(99.8%, 0%, 12.16%)" fill-opacity="1" stroke-width="0.5" stroke-linecap="butt" stroke-linejoin="miter" stroke="rgb(0%, 0%, 0%)" stroke-opacity="1" stroke-miterlimit="10" d="M 1091 190 L 1141 90 L 1191 190 Z M 1091 190 "/>
<path fill-rule="nonzero" fill="rgb(100%, 0%, 2.4%)" fill-opacity="1" stroke-width="0.5" stroke-linecap="butt" stroke-linejoin="miter" stroke="rgb(0%, 0%, 0%)" stroke-opacity="1" stroke-miterlimit="10" d="M 1101 200 L 1151 100 L 1201 200 Z M 1101 200 "/>
</svg>
